<?xml version="1.0" encoding="UTF-8"?>
<svg version="1.1" xmlns="http://www.w3.org/2000/svg" width="788" height="224">
<path d="M0 0 C21.93064647 18.8116212 35.73288316 42.86577265 38.90625 71.76171875 C41.13931975 101.9391752 33.22381327 128.85872888 14.1875 152.5625 C-4.00418188 173.46241723 -30.80002037 187.00613409 -58.41601562 189.15258789 C-87.08245075 191.01681694 -115.61525368 182.61975883 -137.40551758 163.55126953 C-138.88284717 162.23094751 -140.3481613 160.89721536 -141.8125 159.5625 C-142.46605469 158.99144531 -143.11960937 158.42039063 -143.79296875 157.83203125 C-161.16375186 141.7815927 -172.41202805 116.76361835 -174.03564453 93.34375 C-175.09580514 61.8785503 -168.08492886 33.60356007 -146.25244141 10.08544922 C-107.58409501 -30.81199819 -44.00690341 -34.89778214 0 0 Z M-98.8125 20.5625 C-102.71695896 26.02301473 -105.51794964 30.78784179 -105.8125 37.5625 C-107.09125 37.48 -108.37 37.3975 -109.6875 37.3125 C-116.71521294 37.32356726 -122.33570543 39.92688095 -128.125 43.75 C-133.9026355 49.79636273 -136.91011832 56.35245956 -136.97363281 64.69140625 C-136.98324036 65.71347168 -136.9928479 66.73553711 -137.00274658 67.78857422 C-137.00699646 68.88959473 -137.01124634 69.99061523 -137.015625 71.125 C-137.02132507 72.26727051 -137.02702515 73.40954102 -137.03289795 74.58642578 C-137.04234552 77.00731481 -137.04888097 79.42821669 -137.05273438 81.84912109 C-137.06239018 85.5207426 -137.09339606 89.19179227 -137.125 92.86328125 C-137.13153549 95.22135086 -137.13678381 97.57942446 -137.140625 99.9375 C-137.1529718 101.02232666 -137.1653186 102.10715332 -137.17803955 103.22485352 C-137.14264667 115.57578265 -134.75541228 126.12009763 -126.18359375 135.30859375 C-118.48401307 142.47224074 -109.57270089 144.69949015 -99.29101562 144.73950195 C-98.18007538 144.74935875 -98.18007538 144.74935875 -97.04669189 144.75941467 C-94.60404336 144.77906504 -92.16145626 144.7907955 -89.71875 144.80078125 C-88.45915718 144.80689454 -88.45915718 144.80689454 -87.17411804 144.81313133 C-82.72415415 144.83396294 -78.27422078 144.84827383 -73.82421875 144.85766602 C-69.25957653 144.8686883 -64.69542744 144.90304779 -60.13095856 144.94283772 C-56.59443343 144.96916729 -53.05802256 144.97737251 -49.52140808 144.98094749 C-47.84072055 144.98577609 -46.1600368 144.99728167 -44.47944641 145.01598549 C-31.0443239 145.15614471 -18.07543589 144.30876635 -7.8125 134.5625 C-7.25949219 134.03785156 -6.70648438 133.51320313 -6.13671875 132.97265625 C2.95608657 123.3834695 3.33624789 111.13710005 3.390625 98.6328125 C3.39632507 97.60243866 3.40202515 96.57206482 3.40789795 95.51046753 C3.41730168 93.34048475 3.42386341 91.17048799 3.42773438 89.00048828 C3.4374499 85.70449684 3.46852199 82.40912703 3.5 79.11328125 C3.50653056 76.99479533 3.51178082 74.876305 3.515625 72.7578125 C3.5341452 71.29796432 3.5341452 71.29796432 3.55303955 69.80862427 C3.52254428 60.3136459 1.82269446 52.29748107 -4.84375 45.3203125 C-10.56128697 40.21536878 -15.84085535 37.3864464 -23.5625 37.5 C-24.76132813 37.51353516 -24.76132813 37.51353516 -25.984375 37.52734375 C-26.58765625 37.53894531 -27.1909375 37.55054687 -27.8125 37.5625 C-27.83828125 36.98242188 -27.8640625 36.40234375 -27.890625 35.8046875 C-28.41564547 28.57372371 -30.71821698 24.37492453 -36 19.375 C-44.49358917 12.70345641 -54.099456 13.0904048 -64.37792969 13.17138672 C-66.80721191 13.187465 -69.23483092 13.17148315 -71.6640625 13.15234375 C-86.51190681 13.04136472 -86.51190681 13.04136472 -98.8125 20.5625 Z " fill="#8675E6" transform="translate(182.8125,30.4375)"/>
<path d="M0 0 C0.78249619 -0.00241196 1.56499237 -0.00482391 2.37120056 -0.00730896 C4.01941007 -0.00633264 5.66765323 0.00700997 7.31567383 0.03198242 C9.83593138 0.06635289 12.35269162 0.05261883 14.87304688 0.03320312 C16.47787947 0.04010053 18.08270305 0.04977197 19.6875 0.0625 C20.43862564 0.05754013 21.18975128 0.05258026 21.96363831 0.04747009 C25.40631387 0.12487867 27.40817048 0.35259389 30.19897461 2.44140625 C32.76576602 5.9987846 33.6852239 10.06181657 34.84375 14.22851562 C35.7025889 17.09225989 36.48088355 19.30159273 38.50390625 21.53515625 C41.54911348 23.0002044 44.29454034 23.24506807 47.65234375 23.56640625 C56.78443446 24.74107352 56.78443446 24.74107352 60.77734375 28.62890625 C64.34662809 33.91524991 65.3843838 37.66764847 65.421875 43.984375 C65.44078293 44.76726395 65.45969086 45.55015289 65.47917175 46.35676575 C65.51549406 48.00630706 65.54271641 49.65607146 65.5612793 51.3059082 C65.58957313 53.79262151 65.64471744 56.27755084 65.70507812 58.76367188 C66.3179055 87.83650079 66.3179055 87.83650079 58.02734375 96.50390625 C51.91810676 100.49840736 46.25247605 102.08263052 38.92773438 102.01708984 C38.18839157 102.0223468 37.44904877 102.02760376 36.68730164 102.03302002 C34.26917727 102.0461092 31.85172357 102.03752191 29.43359375 102.02734375 C27.73783239 102.02936768 26.04207188 102.03228177 24.34631348 102.03604126 C20.8025682 102.0404496 17.2590507 102.03408183 13.71533203 102.02001953 C9.18955603 102.00292846 4.66431389 102.01277767 0.13855743 102.03073692 C-3.36004607 102.0416152 -6.85852453 102.03810994 -10.35713196 102.03035355 C-12.02517257 102.0283627 -13.69322481 102.0307713 -15.36125183 102.03779221 C-17.6988196 102.04547377 -20.03554155 102.03371024 -22.37304688 102.01708984 C-23.05172318 102.02316254 -23.73039948 102.02923523 -24.42964172 102.03549194 C-30.88681999 101.95110736 -37.34018154 100.21568777 -42.03515625 95.56640625 C-48.06106899 88.81923053 -48.68228538 80.23208119 -48.62109375 71.52734375 C-48.62396393 70.60603668 -48.62683411 69.68472961 -48.62979126 68.73550415 C-48.63181698 66.80445738 -48.6263926 64.87338939 -48.61376953 62.94238281 C-48.59765724 60.00408769 -48.61368835 57.06716008 -48.6328125 54.12890625 C-48.63083052 52.24088242 -48.62698779 50.35285942 -48.62109375 48.46484375 C-48.62716644 47.59693207 -48.63323914 46.72902039 -48.63949585 45.83480835 C-48.57130601 39.86409398 -47.97318393 33.83558088 -43.91244507 29.10140991 C-38.41052058 24.1663646 -32.77364028 23.41424851 -25.6875 23.16796875 C-22.28401475 22.42362491 -20.67098937 21.09353443 -18.22265625 18.62890625 C-16.74193057 15.56630639 -16.74193057 15.56630639 -15.72265625 12.19140625 C-12.90026829 3.49240335 -9.29277945 -0.16447121 0 0 Z M-17.53515625 38.06640625 C-23.69238098 45.64581604 -24.78986954 54.13171967 -24.22265625 63.62890625 C-22.87730311 72.97825906 -18.61352248 80.72522652 -11.22265625 86.62890625 C-3.08105973 91.77349775 5.75322593 93.94523699 15.2578125 92.1640625 C24.96223231 89.62135405 32.72344914 84.38997793 37.9296875 75.70703125 C42.67863532 66.44573799 42.72184629 56.20923396 39.8515625 46.3515625 C36.68942834 38.33698974 30.02671132 31.36926624 22.15234375 27.81640625 C7.04299447 22.50015373 -6.83225162 26.36421322 -17.53515625 38.06640625 Z " fill="#8675E6" transform="translate(107.22265625,59.37109375)"/>
<path d="M0 0 C2.625 2.3125 2.625 2.3125 4 4 C4.76183594 3.27683594 4.76183594 3.27683594 5.5390625 2.5390625 C11.62487011 -3.04529279 16.35002002 -5.49446248 24.703125 -5.2421875 C31.0454361 -4.57344041 36.11405888 -2.12173757 40.35351562 2.69799805 C47.38481813 12.52868478 46.56409265 25.26548263 46.41162109 36.76025391 C46.37462516 39.65432258 46.37060609 42.54712341 46.37109375 45.44140625 C46.36127778 47.28646944 46.34962746 49.13152399 46.3359375 50.9765625 C46.33371185 51.83899567 46.33148621 52.70142883 46.32919312 53.58999634 C46.31643341 54.38868134 46.30367371 55.18736633 46.29052734 56.01025391 C46.27909195 57.06063339 46.27909195 57.06063339 46.26742554 58.13223267 C46 60 46 60 44 63 C33.32688321 65.25777471 33.32688321 65.25777471 28.6875 62.75 C25.47760354 59.42121849 25.88807711 55.521086 25.9375 51.08984375 C25.94523438 49.93419922 25.95296875 48.77855469 25.9609375 47.58789062 C25.9866866 45.18163748 26.01272154 42.77538737 26.0390625 40.36914062 C26.47801405 27.50324505 26.47801405 27.50324505 24 15 C20.29090696 13.76363565 16.85532145 13.44812939 13 14 C10.0560275 15.96264834 9.18708713 17.16686669 8.41333008 20.61254883 C7.92434486 24.62003253 7.84605809 28.54149338 7.82421875 32.57421875 C7.80104521 34.22722662 7.77692893 35.8802215 7.75195312 37.53320312 C7.71670495 40.1206163 7.6873968 42.70754066 7.67407227 45.29516602 C7.65864272 47.80543487 7.61850459 50.31431522 7.57421875 52.82421875 C7.57612717 53.5992424 7.57803558 54.37426605 7.58000183 55.17277527 C7.45776447 60.51841091 7.45776447 60.51841091 5.11425781 62.98388672 C2.61264882 64.18616115 0.83462648 64.43322862 -1.9375 64.4375 C-2.77152344 64.45683594 -3.60554687 64.47617188 -4.46484375 64.49609375 C-8.03868588 63.79674406 -9.49681638 62.66115775 -12 60 C-12.72518936 57.01477689 -12.65024161 54.09450074 -12.6015625 51.03515625 C-12.60956879 50.16483261 -12.61757507 49.29450897 -12.62582397 48.39781189 C-12.64889349 45.61890047 -12.63943236 42.84145084 -12.625 40.0625 C-12.62114936 37.28739323 -12.6246217 34.51293402 -12.64559937 31.73789978 C-12.65766286 30.01281075 -12.65506137 28.28753999 -12.63589478 26.56251526 C-12.65970422 21.43328589 -13.19039784 17.80960216 -17 14 C-19.03270562 13.76179079 -19.03270562 13.76179079 -21.375 13.75 C-22.16648437 13.72421875 -22.95796875 13.6984375 -23.7734375 13.671875 C-26.52714035 14.07768384 -27.33271658 14.81105121 -29 17 C-30.32184982 20.96554946 -30.13561123 24.76861419 -30.140625 28.90234375 C-30.15894731 30.69727837 -30.17851708 32.49220062 -30.19921875 34.28710938 C-30.22822815 37.11601745 -30.25000114 39.94412666 -30.25048828 42.77319336 C-30.25381881 45.50446397 -30.28833533 48.23389255 -30.328125 50.96484375 C-30.3210553 51.80973862 -30.3139856 52.65463348 -30.30670166 53.52513123 C-30.4285234 59.39413656 -30.4285234 59.39413656 -33.38574219 62.52929688 C-36.18100313 64.10182694 -37.8147664 64.56747693 -41 64.5625 C-41.825 64.58441406 -42.65 64.60632813 -43.5 64.62890625 C-46.25725805 63.93528352 -47.96649694 62.95825299 -49.93258667 60.8941803 C-52.42309558 56.47464311 -51.68197005 50.88901491 -51.62890625 45.96484375 C-51.63131821 44.69403458 -51.63373016 43.4232254 -51.63621521 42.11390686 C-51.63523621 39.4291588 -51.62443142 36.74664327 -51.59692383 34.06225586 C-51.56280507 30.62644621 -51.56887466 27.19212911 -51.5875864 23.75624752 C-51.60070939 20.47152618 -51.58243992 17.18703282 -51.56640625 13.90234375 C-51.57136612 12.66999496 -51.57632599 11.43764618 -51.58143616 10.16795349 C-51.56559982 9.02319046 -51.54976349 7.87842743 -51.53344727 6.69897461 C-51.52724869 5.69257431 -51.52105011 4.68617401 -51.5146637 3.64927673 C-50.86029786 0.28087094 -49.67643816 -0.91367951 -47 -3 C-44.08984375 -3.49609375 -44.08984375 -3.49609375 -40.9375 -3.4375 C-39.89464844 -3.43621094 -38.85179687 -3.43492188 -37.77734375 -3.43359375 C-34.70580485 -2.9540708 -33.82613326 -2.44881476 -32 0 C-31.67 0.66 -31.34 1.32 -31 2 C-29.700625 0.824375 -29.700625 0.824375 -28.375 -0.375 C-19.25685682 -7.87780779 -9.33302463 -5.9148253 0 0 Z " fill="#FDFDFC" transform="translate(734,87)"/>
<path d="M0 0 C2.5625 2.1875 2.5625 2.1875 4 4 C4.598125 3.175 5.19625 2.35 5.8125 1.5 C8.51534148 -1.22614183 10.78623248 -1.44638482 14.5625 -1.5625 C17.93346066 -1.5671754 19.45961531 -1.42367972 22.13345337 0.67269897 C24.47802162 3.59602058 24.49614979 5.08861672 24.48583984 8.80322266 C24.49506973 10.55622177 24.49506973 10.55622177 24.50448608 12.34463501 C24.49011505 13.60504608 24.47574402 14.86545715 24.4609375 16.1640625 C24.46002106 17.46644867 24.45910461 18.76883484 24.4581604 20.11068726 C24.45503376 22.86974419 24.43849254 25.62828104 24.41162109 28.38720703 C24.37784168 31.89723197 24.36998713 35.40668072 24.37151146 38.91684914 C24.37083105 42.29099513 24.35310765 45.6649586 24.3359375 49.0390625 C24.33371185 50.28732819 24.33148621 51.53559387 24.32919312 52.82168579 C24.20508279 64.3729583 23.10481066 75.57221471 15.50390625 84.8203125 C7.59830678 92.3657048 -3.45405506 94.11326194 -14 94 C-22.34017202 93.34049735 -29.51503633 91.5615888 -36.125 86.3125 C-37.58066952 82.46537341 -36.56638919 78.72263204 -35 75 C-32.91015625 72.71875 -32.91015625 72.71875 -31 71 C-30.29617188 71.3609375 -29.59234375 71.721875 -28.8671875 72.09375 C-20.94130605 75.81870734 -13.74876319 77.31067613 -5 76 C-0.90938135 73.94897752 1.26166148 72.30010054 3 68 C3.23632823 64.65030419 3.17570967 61.35149935 3 58 C1.6078125 59.2065625 1.6078125 59.2065625 0.1875 60.4375 C-5.45685569 65.32927493 -12.93561563 64.61444377 -20.03076172 64.22216797 C-26.19835917 63.5263443 -31.12732274 60.23833184 -35.375 55.875 C-42.21319263 46.88655416 -43.82492958 35.35297809 -42.59375 24.37890625 C-40.85428117 14.7600578 -37.71341367 7.71258317 -30 1.5625 C-20.96657646 -4.57886704 -9.79741056 -4.85805212 0 0 Z M-21.375 19.8125 C-24.42557616 25.82392948 -24.2332883 34.02313988 -22.26953125 40.35546875 C-20.28678008 44.15102099 -17.99344416 46.55556275 -14 48 C-8.94719705 48.60968965 -4.60995452 48.80497726 0 46.5 C4.39841447 41.00198191 5.52451714 35.36184805 5.2890625 28.39453125 C4.61443296 22.80604604 2.35402097 18.65175953 -2 15 C-8.87863238 11.56068381 -16.68762496 14.26166114 -21.375 19.8125 Z M4 55 C5 57 5 57 5 57 Z " fill="#FCFCFC" transform="translate(534,85)"/>
<path d="M0 0 C2.06529403 -0.00955602 4.12952603 -0.04051464 6.19458008 -0.07226562 C17.22265415 -0.16126447 29.88118005 -0.06890495 38.6184082 7.50585938 C46.67763957 15.82748433 48.79909832 23.13977024 48.61450195 34.73242188 C47.93117729 42.30804591 44.62113384 49.73461181 39.2980957 55.24023438 C28.16209154 63.90925625 15.80279864 63.41312531 2.2980957 63.24023438 C2.12846465 66.42758375 1.96293319 69.61513379 1.7980957 72.80273438 C1.75040039 73.69798828 1.70270508 74.59324219 1.65356445 75.515625 C1.45211321 79.44392426 1.27405201 83.3417365 1.34887695 87.27539062 C1.2980957 90.24023438 1.2980957 90.24023438 -0.0144043 92.11523438 C-3.93479942 94.72883113 -8.16455462 94.60286856 -12.7019043 94.24023438 C-15.6394043 93.36523438 -15.6394043 93.36523438 -17.7019043 92.24023438 C-19.28757625 89.06889046 -18.85812249 85.64939397 -18.86303711 82.16625977 C-18.86800201 81.33197952 -18.87296692 80.49769928 -18.87808228 79.63813782 C-18.89271768 76.87138045 -18.89950764 74.10468038 -18.9050293 71.33789062 C-18.91077893 69.41979469 -18.91653669 67.50169879 -18.92230225 65.58360291 C-18.93281569 61.55939465 -18.93865633 57.53520639 -18.94213867 53.51098633 C-18.94762885 48.34788469 -18.97166658 43.18504606 -19.00011063 38.02202702 C-19.0187082 34.05955729 -19.02394103 30.09715134 -19.02547455 26.13464165 C-19.02850735 24.23079424 -19.0365569 22.32694812 -19.04965973 20.42314339 C-19.0666627 17.76309134 -19.06485438 15.10368743 -19.05834961 12.44360352 C-19.06756439 11.65336792 -19.07677917 10.86313232 -19.08627319 10.0489502 C-19.04550095 4.74225487 -19.04550095 4.74225487 -17.36712646 2.2900238 C-12.24781783 -0.93729096 -5.83292517 0.01625714 0 0 Z M1.2980957 17.24023438 C1.2980957 26.81023437 1.2980957 36.38023438 1.2980957 46.24023438 C3.9793457 46.15773438 6.6605957 46.07523438 9.4230957 45.99023438 C10.25599121 45.97444336 11.08888672 45.95865234 11.94702148 45.94238281 C17.12408513 45.70767938 20.16911757 44.60761746 24.2980957 41.24023438 C27.48170038 37.52602891 27.76805135 34.18058208 27.5793457 29.45507812 C27.15734562 26.13182746 26.24346865 23.9637565 24.2980957 21.24023438 C16.8214145 16.52667449 10.258504 17.24023438 1.2980957 17.24023438 Z " fill="#FCFCFC" transform="translate(272.701904296875,56.759765625)"/>
<path d="M0 0 C0.66 0.433125 1.32 0.86625 2 1.3125 C2.3609375 0.66410156 2.721875 0.01570313 3.09375 -0.65234375 C5 -2.6875 5 -2.6875 8.03125 -3.25390625 C9.74828125 -3.25197266 9.74828125 -3.25197266 11.5 -3.25 C12.6446875 -3.27191406 13.789375 -3.29382813 14.96875 -3.31640625 C18 -2.6875 18 -2.6875 19.66894531 -0.51919556 C21.1732308 2.68103247 21.36013167 4.72797354 21.328125 8.24853516 C21.32401611 9.41969879 21.31990723 10.59086243 21.31567383 11.79751587 C21.29400146 13.05285126 21.2723291 14.30818665 21.25 15.6015625 C21.23541748 16.89693939 21.22083496 18.19231628 21.20581055 19.52694702 C21.17237805 22.26238048 21.1269095 24.99730409 21.07373047 27.73242188 C21.00716738 31.23743215 20.97732376 34.74168741 20.95724487 38.24723244 C20.93166789 41.59494362 20.87004471 44.94174836 20.8125 48.2890625 C20.80428223 50.17813828 20.80428223 50.17813828 20.79589844 52.1053772 C20.76657227 53.27023651 20.73724609 54.43509583 20.70703125 55.63525391 C20.6913208 56.66163971 20.67561035 57.68802551 20.65942383 58.74551392 C20 61.3125 20 61.3125 17.59838867 63.13803101 C13.67030626 64.91352019 10.2227941 65.17085379 6 64.3125 C3.0625 61.8125 3.0625 61.8125 1 59.3125 C-1.23726914 59.10256601 -1.23726914 59.10256601 -3.3125 61.1875 C-9.61749847 66.17284762 -16.24398669 66.05773971 -24 65.3125 C-30.88135563 63.42649883 -36.71390041 59.81565981 -40.62890625 53.81640625 C-47.20973574 41.87576865 -48.31197582 29.48154673 -45 16.3125 C-42.24983944 8.52037841 -37.9292306 1.89996217 -30.4921875 -2.00390625 C-19.5831199 -6.46388118 -10.18692885 -5.73014748 0 0 Z M-24.25 17.5 C-28.35475164 24.09692228 -28.71219092 30.86384459 -27 38.3125 C-24.59397111 43.12455778 -21.81788476 45.90355762 -17 48.3125 C-10.60896864 49.12405954 -7.19799393 48.08359363 -2 44.3125 C1.99110049 39.12406936 2.42668352 33.71275279 2 27.3125 C0.69740352 21.34312088 -1.10510546 17.22841563 -6 13.3125 C-13.15378683 10.92790439 -18.87121948 12.27063005 -24.25 17.5 Z " fill="#FDFDFD" transform="translate(654,86.6875)"/>
<path d="M0 0 C8.74788424 6.32272821 12.71622075 13.97346679 14.5546875 24.5234375 C15.72837343 35.20111678 13.67702871 45.73048155 7.3046875 54.5234375 C1.28735352 61.53080292 -5.79081984 64.99255718 -15.0234375 65.859375 C-24.87073385 65.96413347 -32.46837228 64.81009614 -40.7578125 59.3359375 C-49.80776634 49.86505557 -52.30214402 40.46586842 -52.4453125 27.5234375 C-51.76044574 18.49334238 -48.37506777 9.88908535 -41.6953125 3.6484375 C-29.94565209 -5.78689586 -13.15235876 -7.94183963 0 0 Z M-29.4453125 16.5234375 C-33.09739928 22.24504013 -33.89990703 27.81816821 -33.4453125 34.5234375 C-32.19368841 39.43790269 -30.5695681 43.36959498 -26.4453125 46.5234375 C-22.07280477 49.07406701 -18.20563961 48.69179365 -13.4453125 47.5234375 C-9.26725626 45.66652361 -7.44078421 43.61415451 -5.4453125 39.5234375 C-3.64929449 33.5866002 -3.79975553 27.59601514 -5.6328125 21.7109375 C-8.14126289 17.29952474 -10.55438418 14.15374694 -15.4453125 12.5234375 C-21.15742916 11.97419551 -25.07939226 12.84746839 -29.4453125 16.5234375 Z " fill="#FDFDFC" transform="translate(372.4453125,86.4765625)"/>
<path d="M0 0 C1.1446875 0.00386719 2.289375 0.00773437 3.46875 0.01171875 C6.5 0.3125 6.5 0.3125 9.5 2.3125 C9.72107787 5.1010289 9.78107535 7.65903181 9.6875 10.4375 C9.66719727 11.56865234 9.66719727 11.56865234 9.64648438 12.72265625 C9.61109985 14.58624127 9.55729167 16.44945978 9.5 18.3125 C10.46421875 18.26609375 11.4284375 18.2196875 12.421875 18.171875 C13.68515625 18.13578125 14.9484375 18.0996875 16.25 18.0625 C17.50296875 18.01609375 18.7559375 17.9696875 20.046875 17.921875 C23.5 18.3125 23.5 18.3125 25.99609375 20.0078125 C27.5 22.3125 27.5 22.3125 27.48828125 24.8203125 C27.15376953 26.11582031 27.15376953 26.11582031 26.8125 27.4375 C26.60238281 28.30632812 26.39226562 29.17515625 26.17578125 30.0703125 C25.5 32.3125 25.5 32.3125 24.5 34.3125 C19.55 34.3125 14.6 34.3125 9.5 34.3125 C9.61965306 38.85167889 9.74219039 43.39058074 9.87231445 47.92944336 C9.91571985 49.47464289 9.95739071 51.01989214 9.99731445 52.56518555 C10.05488199 54.78189096 10.11861424 56.9983448 10.18359375 59.21484375 C10.20030624 59.9096434 10.21701874 60.60444305 10.23423767 61.32029724 C10.06502856 64.60012029 10.06502856 64.60012029 11.5 67.3125 C13.85313555 67.38521741 16.20833668 67.39620868 18.5625 67.375 C19.85285156 67.36597656 21.14320313 67.35695313 22.47265625 67.34765625 C23.47167969 67.33605469 24.47070312 67.32445312 25.5 67.3125 C27.80204758 71.74191404 29.40618425 75.24644955 29.5 80.3125 C27.28158201 83.73256106 24.55450516 85.06491332 20.609375 85.9921875 C12.22435967 87.26546761 4.95163772 86.5527043 -2.5 82.3125 C-6.69490659 78.44027853 -9.04328735 72.9079088 -9.76205444 67.24951172 C-9.84336817 65.11822604 -9.83855278 63.00729483 -9.79296875 60.875 C-9.78872391 60.10945801 -9.78447906 59.34391602 -9.78010559 58.55517578 C-9.76348328 56.14057313 -9.72586506 53.72684489 -9.6875 51.3125 C-9.67243178 49.66277258 -9.65874714 48.01303191 -9.64648438 46.36328125 C-9.61363417 42.3460238 -9.56196973 38.32940948 -9.5 34.3125 C-10.13808594 34.32410156 -10.77617187 34.33570313 -11.43359375 34.34765625 C-12.25988281 34.35667969 -13.08617187 34.36570313 -13.9375 34.375 C-14.76121094 34.38660156 -15.58492188 34.39820313 -16.43359375 34.41015625 C-18.5 34.3125 -18.5 34.3125 -19.5 33.3125 C-19.46200774 31.1644758 -19.34473342 29.01759867 -19.1875 26.875 C-19.10886719 25.70066406 -19.03023438 24.52632812 -18.94921875 23.31640625 C-18.5 20.3125 -18.5 20.3125 -16.5 18.3125 C-12.875 18.1875 -12.875 18.1875 -9.5 18.3125 C-9.53480469 17.26449219 -9.56960938 16.21648437 -9.60546875 15.13671875 C-9.63360937 13.75782853 -9.66090924 12.37892098 -9.6875 11 C-9.71263672 10.30970703 -9.73777344 9.61941406 -9.76367188 8.90820312 C-9.80481938 6.069025 -9.80834588 3.85945983 -8.39453125 1.3515625 C-5.56932999 -0.19792933 -3.19786927 -0.04681565 0 0 Z " fill="#FCFCFC" transform="translate(460.5,65.6875)"/>
<path d="M0 0 C2.92157211 2.33725769 3.81576138 3.44728413 5 7 C4.4765625 9.2265625 4.4765625 9.2265625 3.625 11.625 C3.34914063 12.42164062 3.07328125 13.21828125 2.7890625 14.0390625 C2 16 2 16 1 17 C-1.1875 17.3125 -1.1875 17.3125 -4 17 C-4.86625 16.34 -5.7325 15.68 -6.625 15 C-11.3320128 12.21065908 -15.63713101 12.44270016 -21 13 C-22.29633621 14.06645115 -22.29633621 14.06645115 -22.0625 16.5625 C-22.041875 17.366875 -22.02125 18.17125 -22 19 C-20.80375 19.515625 -19.6075 20.03125 -18.375 20.5625 C-16.58104013 21.36992409 -14.78971777 22.18321605 -13 23 C-11.84371094 23.52078125 -10.68742187 24.0415625 -9.49609375 24.578125 C4.67250987 31.14953618 4.67250987 31.14953618 7.859375 39.16015625 C9.78171842 45.99385269 8.58756929 51.15332403 5.1875 57.25 C1.08752681 62.404252 -3.50460842 65.62368989 -10 67 C-21.13962937 68.03190763 -30.10911321 66.94977486 -39.125 60.125 C-41.4453315 57.94180393 -41.95146339 57.2117961 -42.6875 54 C-41.8330467 50.27147653 -40.4073039 47.9575448 -38 45 C-36.515 44.505 -36.515 44.505 -35 44 C-33.38671875 44.92578125 -33.38671875 44.92578125 -31.6875 46.3125 C-25.95183347 50.63224885 -21.02312867 51.34539977 -14 51 C-12.515 50.505 -12.515 50.505 -11 50 C-10.67 48.02 -10.34 46.04 -10 44 C-13.76031548 42.04463595 -17.44690774 40.21463282 -21.40234375 38.6796875 C-28.84661896 35.77189163 -35.01752098 33.23269578 -39 26 C-41.40017054 19.96054648 -41.41733802 14.97991558 -38.97265625 8.96875 C-36.0082198 2.96844489 -32.05251616 0.41154941 -26 -2 C-17.80548251 -4.61125086 -7.65525953 -3.90203293 0 0 Z " fill="#FCFCFC" transform="translate(432,85)"/>
<path d="M0 0 C2.23668737 1.87881739 2.18376699 3.45367664 2.5625 6.3125 C2.34330186 9.79357517 1.73529227 13.0239669 0.5625 16.3125 C-1.87856153 18.16178904 -3.62865487 18.24750352 -6.625 18.48828125 C-11.64668198 18.80614134 -11.64668198 18.80614134 -15.9375 21.25 C-18.87678576 25.29151792 -18.60470855 28.83843992 -18.6484375 33.6796875 C-18.67650587 35.38672834 -18.70517033 37.09375947 -18.734375 38.80078125 C-18.77564483 41.49560274 -18.81252681 44.19024277 -18.83886719 46.88525391 C-18.86647564 49.48378086 -18.91234615 52.08147955 -18.9609375 54.6796875 C-18.96419037 55.48397186 -18.96744324 56.28825623 -18.97079468 57.11691284 C-19.04300399 60.40355594 -19.19829506 62.87107161 -20.77978516 65.78955078 C-23.47463184 68.26531715 -26.29041841 68.53123017 -29.8125 68.6875 C-30.56273437 68.73648438 -31.31296875 68.78546875 -32.0859375 68.8359375 C-34.80377673 68.23096996 -36.4429075 67.22612687 -38.36486816 65.21038818 C-40.86241507 60.79129059 -40.1194976 55.20407227 -40.06640625 50.27734375 C-40.06881821 49.00653458 -40.07123016 47.7357254 -40.07371521 46.42640686 C-40.07273621 43.7416588 -40.06193142 41.05914327 -40.03442383 38.37475586 C-40.00030507 34.93894621 -40.00637466 31.50462911 -40.0250864 28.06874752 C-40.03820939 24.78402618 -40.01993992 21.49953282 -40.00390625 18.21484375 C-40.00886612 16.98249496 -40.01382599 15.75014618 -40.01893616 14.48045349 C-40.00309982 13.33569046 -39.98726349 12.19092743 -39.97094727 11.01147461 C-39.96474869 10.00507431 -39.95855011 8.99867401 -39.9521637 7.96177673 C-39.29781338 4.59345081 -38.11533441 3.39717033 -35.4375 1.3125 C-32.52734375 0.8515625 -32.52734375 0.8515625 -29.375 0.9375 C-28.33214844 0.95039062 -27.28929687 0.96328125 -26.21484375 0.9765625 C-23.4375 1.3125 -23.4375 1.3125 -20.4375 3.3125 C-20.1075 4.3025 -19.7775 5.2925 -19.4375 6.3125 C-19.03917969 5.89097656 -18.64085937 5.46945313 -18.23046875 5.03515625 C-17.70066406 4.48730469 -17.17085937 3.93945312 -16.625 3.375 C-16.10292969 2.82972656 -15.58085938 2.28445312 -15.04296875 1.72265625 C-11.00866399 -1.82085718 -4.90681659 -1.38397391 0 0 Z " fill="#FCFCFC" transform="translate(605.4375,82.6875)"/>
<path d="M0 0 C4.34048798 3.02068221 7.47521474 7.11878867 8.82421875 12.26953125 C9.3051021 18.13630818 8.84836352 23.11570706 5.82421875 28.26953125 C1.20732089 33.53932376 -3.58773202 35.87085911 -10.55078125 36.64453125 C-17.83702723 35.89078167 -22.42910876 32.58706774 -27.046875 27.05078125 C-29.98989252 22.40712731 -29.75659657 16.57049362 -29.17578125 11.26953125 C-27.08074982 5.04429499 -22.40523981 1.05423203 -16.80078125 -2.04296875 C-10.45583006 -3.70474168 -5.65941101 -3.14658805 0 0 Z " fill="#8675E7" transform="translate(126.17578125,101.73046875)"/>
<path d="M0 0 C2.83094947 0.35003063 3.80598338 0.76781618 5.66796875 2.99609375 C6.16941406 3.80175781 6.67085937 4.60742188 7.1875 5.4375 C7.95126953 6.64212891 7.95126953 6.64212891 8.73046875 7.87109375 C11.0751277 11.80290645 11.0852289 14.39763949 11 19 C11.7734375 18.94199219 12.546875 18.88398437 13.34375 18.82421875 C22.58086877 18.42409603 26.91065411 20.38615945 33.6875 26.375 C34.450625 27.24125 35.21375 28.1075 36 29 C36.43183594 29.47824219 36.86367187 29.95648438 37.30859375 30.44921875 C46.45656451 41.66023336 44.35562405 57.74297762 44.1875 71.25 C44.17242604 73.36327171 44.15874244 75.47655383 44.14648438 77.58984375 C44.11369351 82.72682273 44.06206057 87.86329467 44 93 C43.34 93 42.68 93 42 93 C42.0825 93.94875 42.165 94.8975 42.25 95.875 C42.26503395 103.27170118 38.18971494 111.29993067 33.4375 116.8125 C32 118 32 118 30 118 C30 118.66 30 119.32 30 120 C27.98828125 121.4375 27.98828125 121.4375 25.3125 123 C24.44238281 123.515625 23.57226562 124.03125 22.67578125 124.5625 C18.30724127 126.90939447 15.00005548 128.28571746 10 128 C11.98 127.505 11.98 127.505 14 127 C14 126.34 14 125.68 14 125 C14.60585937 124.81566406 15.21171875 124.63132812 15.8359375 124.44140625 C24.27449427 121.52036737 31.18892853 116.90648026 35.703125 109.02734375 C39.75320429 99.82156008 40.16003155 90.97986526 40.203125 81.0703125 C40.20882507 80.03993866 40.21452515 79.00956482 40.22039795 77.94796753 C40.22980168 75.77798475 40.23636341 73.60798799 40.24023438 71.43798828 C40.2499499 68.14199684 40.28102199 64.84662703 40.3125 61.55078125 C40.31903056 59.43229533 40.32428082 57.313805 40.328125 55.1953125 C40.3404718 54.22208038 40.3528186 53.24884827 40.36553955 52.24612427 C40.33491057 42.70951214 38.63129153 34.64807178 31.8671875 27.6875 C25.25668997 21.71315914 18.66084762 20.98981116 10 20 C9.85304687 19.12988281 9.85304687 19.12988281 9.703125 18.2421875 C8.2543571 10.67362417 4.87172818 5.91566993 0 0 Z " fill="#9184DC" transform="translate(145,48)"/>
<path d="M0 0 C0.33 0.66 0.66 1.32 1 2 C-0.44632813 2.18175781 -0.44632813 2.18175781 -1.921875 2.3671875 C-3.81679687 2.61855469 -3.81679687 2.61855469 -5.75 2.875 C-7.00296875 3.03742188 -8.2559375 3.19984375 -9.546875 3.3671875 C-12.48616408 3.9058355 -14.47107147 4.48008841 -17 6 C-17 6.66 -17 7.32 -17 8 C-17.66 8 -18.32 8 -19 8 C-20.3381468 17.2547261 -20.29660669 26.48104116 -20.35009766 35.81738281 C-20.36670009 37.93923884 -20.39404594 40.06103798 -20.43212891 42.18261719 C-20.48706911 45.26786817 -20.50878951 48.35182498 -20.5234375 51.4375 C-20.54610687 52.37730713 -20.56877625 53.31711426 -20.59213257 54.28540039 C-20.57166263 60.71021152 -19.21180472 65.06765332 -15 70 C-9.53148341 74.26544294 -5.34982212 75.15047367 1.40893555 75.20532227 C2.16039856 75.21522186 2.91186157 75.22512146 3.68609619 75.23532104 C6.16960501 75.26690496 8.65313296 75.29168116 11.13671875 75.31640625 C12.85879513 75.33697846 14.5808665 75.35797501 16.30293274 75.37937927 C20.83533666 75.43457234 25.36778594 75.48399382 29.90026855 75.53222656 C34.52535031 75.58246176 39.1503662 75.63813729 43.77539062 75.69335938 C52.85020414 75.80090713 61.92507486 75.90235964 71 76 C71 76.33 71 76.66 71 77 C60.67299713 77.09275657 50.34609367 77.16379377 40.01875877 77.20724869 C35.22313071 77.22810691 30.42778804 77.25639228 25.63232422 77.30175781 C21.00279568 77.34527858 16.37354135 77.36915039 11.74382401 77.37950897 C9.97919016 77.38688917 8.21457101 77.40130111 6.45005417 77.42292023 C3.97467591 77.45203762 1.50042482 77.45595261 -0.97509766 77.45410156 C-1.70158508 77.46848267 -2.42807251 77.48286377 -3.17657471 77.49768066 C-9.14795112 77.44949237 -12.49559383 75.247544 -16.828125 71.359375 C-17.53195313 70.56273437 -17.53195313 70.56273437 -18.25 69.75 C-18.72953125 69.22921875 -19.2090625 68.7084375 -19.703125 68.171875 C-23.34739684 62.06881734 -23.30796933 54.98826904 -23.30078125 48.09375 C-23.30506638 47.16961304 -23.3093515 46.24547607 -23.31376648 45.29333496 C-23.31947861 43.35035009 -23.3200332 41.40734385 -23.31567383 39.46435547 C-23.31250901 36.50841553 -23.33602904 33.55347318 -23.36132812 30.59765625 C-23.36360111 28.70052208 -23.36430462 26.80338525 -23.36328125 24.90625 C-23.372491 24.03206421 -23.38170074 23.15787842 -23.39118958 22.25720215 C-23.34641963 16.25940414 -22.77231344 10.23115351 -18.68965149 5.47277832 C-12.92083332 0.29681031 -7.37112474 -0.25417672 0 0 Z " fill="#9688E5" transform="translate(82,83)"/>
<path d="M0 0 C0.66 0 1.32 0 2 0 C2.0093457 0.81976318 2.01869141 1.63952637 2.02832031 2.48413086 C2.21291719 25.0572506 2.21291719 25.0572506 7 47 C7.20753906 47.63357422 7.41507813 48.26714844 7.62890625 48.91992188 C12.508301 63.42662543 21.61867111 79.60624079 33.765625 89.1796875 C34.50296875 89.78039062 35.2403125 90.38109375 36 91 C36 91.66 36 92.32 36 93 C36.57105469 93.26554687 37.14210937 93.53109375 37.73046875 93.8046875 C40.11723398 95.06174458 42.1475069 96.51714675 44.3125 98.125 C50.83641613 102.77096726 57.88999068 106.35019522 65 110 C65 110.66 65 111.32 65 112 C52.05091352 108.07425885 41.8336385 99.96316427 32 91 C31.34644531 90.42894531 30.69289063 89.85789062 30.01953125 89.26953125 C12.77636283 73.33700746 0.89860381 47.86882155 -0.15869141 24.49121094 C-0.19568809 20.76293177 -0.17524905 17.04059293 -0.125 13.3125 C-0.11597656 12.02666016 -0.10695313 10.74082031 -0.09765625 9.41601562 C-0.0743189 6.27714268 -0.04158033 3.13867524 0 0 Z " fill="#9083D5" transform="translate(9,99)"/>
<path d="M0 0 C4.34048798 3.02068221 7.47521474 7.11878867 8.82421875 12.26953125 C9.3051021 18.13630818 8.84836352 23.11570706 5.82421875 28.26953125 C1.20732089 33.53932376 -3.58773202 35.87085911 -10.55078125 36.64453125 C-17.83702723 35.89078167 -22.42910876 32.58706774 -27.046875 27.05078125 C-29.98989252 22.40712731 -29.75659657 16.57049362 -29.17578125 11.26953125 C-27.08074982 5.04429499 -22.40523981 1.05423203 -16.80078125 -2.04296875 C-10.45583006 -3.70474168 -5.65941101 -3.14658805 0 0 Z M-24.55859375 5.80859375 C-27.80931167 10.6051076 -27.92565076 15.65002721 -27.17578125 21.26953125 C-25.97792758 25.80241634 -23.91679529 29.38360613 -20.17578125 32.26953125 C-15.12712081 34.67365527 -9.66295013 35.24877985 -4.17578125 34.26953125 C0.47368838 31.89073284 3.77105853 29.11890016 5.82421875 24.26953125 C7.21978807 19.24548169 8.01508538 13.9370725 5.84765625 9.08203125 C2.94287947 4.23479638 0.29228911 1.09222137 -5.17578125 -0.73046875 C-13.19798109 -1.72790035 -19.05966396 -0.31168404 -24.55859375 5.80859375 Z " fill="#9589D9" transform="translate(126.17578125,101.73046875)"/>
<path d="M0 0 C0.66 0.33 1.32 0.66 2 1 C0.73083275 3.53833449 -0.41624809 3.89400901 -2.9375 5.125 C-3.64777344 5.47820313 -4.35804687 5.83140625 -5.08984375 6.1953125 C-7 7 -7 7 -9 7 C-9 7.66 -9 8.32 -9 9 C-10.6875 10.26171875 -10.6875 10.26171875 -13 11.6875 C-21.11777437 16.73853958 -21.11777437 16.73853958 -27 24 C-27.66 24 -28.32 24 -29 24 C-29.27585937 24.59039062 -29.55171875 25.18078125 -29.8359375 25.7890625 C-30.94236981 27.89054131 -32.13467291 29.53498722 -33.625 31.375 C-44.48980123 45.69316103 -50.01622674 61.66279682 -54 79 C-55.84131415 76.33372431 -56.02158456 75.15478655 -55.56640625 71.890625 C-47.03097332 40.93722619 -29.44883192 17.71142147 -1.9609375 0.8984375 C-1.31382813 0.60195313 -0.66671875 0.30546875 0 0 Z " fill="#9487DB" transform="translate(66,18)"/>
<path d="M0 0 C0 0.33 0 0.66 0 1 C-4.9853926 0.63742599 -9.48181589 -0.11564744 -14.29077148 -1.50292969 C-35.7104217 -7.43142121 -62.00407402 -6.17974413 -82 4 C-82.66 4 -83.32 4 -84 4 C-84 3.34 -84 2.68 -84 2 C-56.2752156 -9.25750116 -28.27935845 -10.55120003 0 0 Z " fill="#9285DA" transform="translate(155,14)"/>
<path d="M0 0 C0.70125 0.78375 1.4025 1.5675 2.125 2.375 C5.50332906 5.26031931 8.6518642 5.56149915 13 6.0625 C18.34671831 6.6815937 22.00858285 7.11362015 26 11 C29.56928434 16.28634366 30.60704005 20.03874222 30.64453125 26.35546875 C30.66343918 27.1383577 30.68234711 27.92124664 30.701828 28.7278595 C30.73815031 30.37740081 30.76537266 32.02716521 30.78393555 33.67700195 C30.81222938 36.16371526 30.86737369 38.64864459 30.92773438 41.13476562 C31.52263771 69.34034864 31.52263771 69.34034864 23.875 78.5625 C22 80 22 80 20 80 C20 79.34 20 78.68 20 78 C21.485 77.01 21.485 77.01 23 76 C23.495 74.515 23.495 74.515 24 73 C24.66 73 25.32 73 26 73 C27.8138698 62.79789085 28.34368344 52.91177812 28.31567383 42.57519531 C28.31247667 40.10698684 28.33620849 37.63993962 28.36132812 35.171875 C28.3635986 33.57552232 28.36430579 31.97916647 28.36328125 30.3828125 C28.372491 29.65869171 28.38170074 28.93457092 28.39118958 28.18850708 C28.3434927 22.86673878 27.1903308 18.86514666 25 14 C20.78200443 9.88745432 17.4333519 8.96565327 11.6875 8.6875 C6.60284047 8.25591086 3.72549192 7.52411398 0 4 C0 2.68 0 1.36 0 0 Z " fill="#9487DB" transform="translate(142,77)"/>
<path d="M0 0 C0.78249619 -0.00241196 1.56499237 -0.00482391 2.37120056 -0.00730896 C4.01941007 -0.00633264 5.66765323 0.00700997 7.31567383 0.03198242 C9.83593138 0.06635289 12.35269162 0.05261883 14.87304688 0.03320312 C16.47787947 0.04010053 18.08270305 0.04977197 19.6875 0.0625 C20.43862564 0.05754013 21.18975128 0.05258026 21.96363831 0.04747009 C25.42141452 0.1252182 27.40965405 0.35137319 30.20483398 2.46118164 C32.09061999 5.06076151 32.93612511 7.5444379 33.77734375 10.62890625 C33.11734375 11.28890625 32.45734375 11.94890625 31.77734375 12.62890625 C30.45734375 9.65890625 29.13734375 6.68890625 27.77734375 3.62890625 C22.86708464 3.36207744 17.95680968 3.12903284 13.04345703 2.92700195 C11.37277751 2.85356727 9.70247482 2.77095692 8.03271484 2.67895508 C5.63028776 2.54818644 3.22843125 2.45062632 0.82421875 2.359375 C-0.29318695 2.28785469 -0.29318695 2.28785469 -1.4331665 2.21488953 C-3.82073484 2.0895953 -3.82073484 2.0895953 -7.22265625 2.62890625 C-11.59684716 6.81563814 -12.9139637 11.94242871 -14.78125 17.5703125 C-16.41835791 21.04417562 -18.02399843 22.55560823 -21.22265625 24.62890625 C-21.88265625 24.62890625 -22.54265625 24.62890625 -23.22265625 24.62890625 C-23.22265625 23.96890625 -23.22265625 23.30890625 -23.22265625 22.62890625 C-22.44921875 22.06042969 -21.67578125 21.49195312 -20.87890625 20.90625 C-17.69788537 18.17899239 -17.00170292 16.14274685 -15.72265625 12.19140625 C-12.90026829 3.49240335 -9.29277945 -0.16447121 0 0 Z " fill="#9084D6" transform="translate(107.22265625,59.37109375)"/>
<path d="M0 0 C0.33 0 0.66 0 1 0 C1.57624169 3.21048939 1.39524707 5.33279394 -0.27734375 8.15625 C-6.56679669 16.48514007 -13.45316297 23.6729423 -24.13842773 25.33203125 C-34.5278351 26.15932938 -43.33197945 25.29682952 -52 19 C-54.88009444 16.49674035 -57.50765706 13.88818564 -60 11 C-59.67 10.01 -59.34 9.02 -59 8 C-58.27296875 8.90492188 -58.27296875 8.90492188 -57.53125 9.828125 C-51.02052078 17.59091753 -44.24533108 22.11988039 -33.9140625 23.22265625 C-23.9771084 23.62362106 -15.67770779 20.16423767 -8 14 C-4.01096863 10.01096863 -2.10998598 5.15150833 0 0 Z " fill="#9689DC" transform="translate(147,128)"/>
<path d="M0 0 C2.7124791 3.33658934 5.26661386 6.74042123 7.75 10.25 C13.79606693 19.27507956 13.79606693 19.27507956 22 26 C22 26.66 22 27.32 22 28 C22.57105469 28.26554687 23.14210938 28.53109375 23.73046875 28.8046875 C26.11723398 30.06174458 28.1475069 31.51714675 30.3125 33.125 C36.83641613 37.77096726 43.88999068 41.35019522 51 45 C51 45.66 51 46.32 51 47 C38.05091352 43.07425885 27.8336385 34.96316427 18 26 C17.34644531 25.42894531 16.69289063 24.85789063 16.01953125 24.26953125 C11.83282013 20.40104995 8.47536397 15.85649079 5.0625 11.3125 C4.56476074 10.65797852 4.06702148 10.00345703 3.55419922 9.32910156 C3.09416504 8.70100586 2.63413086 8.07291016 2.16015625 7.42578125 C1.74386963 6.86286377 1.32758301 6.29994629 0.89868164 5.7199707 C0 4 0 4 0 0 Z " fill="#978BDD" transform="translate(23,164)"/>
<path d="M0 0 C1.32 0 2.64 0 4 0 C4 0.66 4 1.32 4 2 C4.85964355 2.1343042 5.71928711 2.2686084 6.60498047 2.40698242 C9.8843917 2.97980637 13.08222265 3.71858724 16.3203125 4.48828125 C24.47811952 6.25355257 32.55557802 6.77408319 40.875 7.1875 C42.35292067 7.26917371 43.83078621 7.35185122 45.30859375 7.43554688 C48.87183857 7.63521651 52.43562468 7.8214928 56 8 C56 8.33 56 8.66 56 9 C36.96428101 10.54626038 20.17652192 9.05884064 2 3 C2 2.34 2 1.68 2 1 C1.34 0.67 0.68 0.34 0 0 Z " fill="#9184DC" transform="translate(75,210)"/>
<path d="M0 0 C0.33 0.66 0.66 1.32 1 2 C-0.44632813 2.18175781 -0.44632813 2.18175781 -1.921875 2.3671875 C-3.81679687 2.61855469 -3.81679687 2.61855469 -5.75 2.875 C-7.00296875 3.03742188 -8.2559375 3.19984375 -9.546875 3.3671875 C-12.48616408 3.9058355 -14.47107147 4.48008841 -17 6 C-17 6.66 -17 7.32 -17 8 C-17.66 8 -18.32 8 -19 8 C-19.33 10.64 -19.66 13.28 -20 16 C-20.66 16 -21.32 16 -22 16 C-22 29.53 -22 43.06 -22 57 C-22.33 57 -22.66 57 -23 57 C-23.07450314 51.16506704 -23.12876864 45.33041482 -23.16479492 39.49511719 C-23.17982344 37.5126462 -23.20025198 35.53020814 -23.22631836 33.54785156 C-23.26296383 30.68806807 -23.27978604 27.82872656 -23.29296875 24.96875 C-23.30845261 24.09134155 -23.32393646 23.21393311 -23.33988953 22.30993652 C-23.34151653 16.27657384 -22.8014626 10.26392098 -18.68937683 5.47302246 C-12.92166362 0.29616189 -7.37057336 -0.2541577 0 0 Z " fill="#9185D1" transform="translate(82,83)"/>
<path d="M0 0 C0.66 0 1.32 0 2 0 C4.38732566 14.6436851 5.92420572 30.46590473 2 45 C1.01 45.495 1.01 45.495 0 46 C-0.12574001 39.46151949 -0.12574001 39.46151949 0.49780273 37.17285156 C1.17464696 34.24435684 1.11131221 31.48868546 1.09765625 28.484375 C1.09443359 27.23398438 1.09121094 25.98359375 1.08789062 24.6953125 C1.07951172 23.39335938 1.07113281 22.09140625 1.0625 20.75 C1.05798828 19.43257812 1.05347656 18.11515625 1.04882812 16.7578125 C1.03704316 13.50516259 1.02059011 10.25260416 1 7 C0.34 6.67 -0.32 6.34 -1 6 C-0.67 4.02 -0.34 2.04 0 0 Z " fill="#9487DF" transform="translate(218,91)"/>
<path d="M0 0 C4.32360073 1.50002474 6.13985742 4.72050804 8.4375 8.4375 C8.83219482 9.06640137 9.22688965 9.69530273 9.63354492 10.34326172 C23.14226792 32.26957821 23.14226792 32.26957821 21.6015625 41.34765625 C21.40304688 41.89292969 21.20453125 42.43820313 21 43 C20.67 43 20.34 43 20 43 C19.8040625 42.175 19.608125 41.35 19.40625 40.5 C16.12770645 27.8380387 10.73508514 16.21482474 3.03125 5.6015625 C2 4 2 4 2 2 C1.34 2 0.68 2 0 2 C0 1.34 0 0.68 0 0 Z " fill="#978ADF" transform="translate(197,47)"/>
<path d="M0 0 C6.15776308 2.57137359 10.31366762 8.79399978 12.875 14.8125 C15.28234087 22.24256442 15.55777612 30.38420566 14 38 C13.34 38 12.68 38 12 38 C12.03480469 37.20078125 12.06960937 36.4015625 12.10546875 35.578125 C12.39516704 23.82465133 11.20971425 13.87247764 3 5 C2.443125 4.47535156 1.88625 3.95070313 1.3125 3.41015625 C0 2 0 2 0 0 Z " fill="#9387D9" transform="translate(136,90)"/>
<path d="M0 0 C0.66 0.33 1.32 0.66 2 1 C-4.3781114 6.78620333 -10.82419907 11.79735572 -18.3125 16.0625 C-19.29766602 16.6347229 -19.29766602 16.6347229 -20.30273438 17.21850586 C-24.58093678 19.57615801 -28.12908066 20.59041429 -33 21 C-29.01688566 18.34459044 -24.7794406 16.21479603 -20.53710938 14.00976562 C-17.12359871 12.21335912 -14.08530433 10.32674251 -11 8 C-10.34 8 -9.68 8 -9 8 C-8.67 7.01 -8.34 6.02 -8 5 C-6.1875 4 -6.1875 4 -4 3 C-2.64886795 2.02418241 -1.31053056 1.02970259 0 0 Z " fill="#9689DF" transform="translate(187,190)"/>
<path d="M0 0 C0.66 0 1.32 0 2 0 C1.835 0.94875 1.67 1.8975 1.5 2.875 C0.41892236 10.63055695 0.83694079 17.49291214 3 25 C3.34665557 26.66394675 3.68676972 28.32943851 4 30 C1.62346768 28.81173384 0.26827159 27.68541917 -0.7109375 25.18359375 C-2.79634573 16.73617924 -2.92334283 8.22190172 0 0 Z " fill="#9183DC" transform="translate(83,106)"/>
<path d="M0 0 C0 0.33 0 0.66 0 1 C-0.6290625 1.14695312 -1.258125 1.29390625 -1.90625 1.4453125 C-12.12469251 4.12303689 -18.27099694 9.19834824 -24 18 C-24.33 18.66 -24.66 19.32 -25 20 C-25.66 20 -26.32 20 -27 20 C-25.20674231 12.02996584 -19.70757742 6.84131406 -13.0625 2.5 C-8.43208499 -0.12366547 -5.24946107 -0.58327345 0 0 Z " fill="#9588DF" transform="translate(111,85)"/>
<path d="M0 0 C0 5.05045815 -3.77351632 8.32271022 -7 12 C-8.93045331 13.82157742 -10.8788999 15.39624139 -13 17 C-13.33 15.02 -13.66 13.04 -14 11 C-12.35 9.68 -10.7 8.36 -9 7 C-8.67 7.99 -8.34 8.98 -8 10 C-5.36 6.7 -2.72 3.4 0 0 Z " fill="#8D7EE6" transform="translate(202,173)"/>
<path d="M0 0 C11.22 0 22.44 0 34 0 C35.32 2.64 36.64 5.28 38 8 C37.34 8.99 36.68 9.98 36 11 C34.68 8.03 33.36 5.06 32 2 C21.44 1.67 10.88 1.34 0 1 C0 0.67 0 0.34 0 0 Z " fill="#9483F5" transform="translate(103,61)"/>
<path d="M0 0 C0 0.66 0 1.32 0 2 C-1.28583984 2.14695312 -1.28583984 2.14695312 -2.59765625 2.296875 C-9.43739176 3.19136127 -14.19743177 4.34185916 -20 8 C-20.99 7.67 -21.98 7.34 -23 7 C-20.40577019 4.12781699 -18.80293156 2.6914421 -15 2 C-14.29875 1.649375 -13.5975 1.29875 -12.875 0.9375 C-8.61244313 -0.4524642 -4.44592142 -0.15539143 0 0 Z " fill="#9486DF" transform="translate(77,66)"/>
<path d="M0 0 C3.77001757 0.40978452 5.80106814 0.86737876 9 3 C8.01 3 7.02 3 6 3 C6 3.66 6 4.32 6 5 C0.375 8 0.375 8 -3 8 C-2.34 7.01 -1.68 6.02 -1 5 C-1.66 5 -2.32 5 -3 5 C-1.125 1.125 -1.125 1.125 0 0 Z " fill="#8E7EE4" transform="translate(88,41)"/>
<path d="M0 0 C0.33 0 0.66 0 1 0 C1.19622241 4.21878192 0.80230168 7.17010894 -1 11 C-3.475 10.01 -3.475 10.01 -6 9 C-5.67 7.68 -5.34 6.36 -5 5 C-4.01 5 -3.02 5 -2 5 C-1.34 3.35 -0.68 1.7 0 0 Z " fill="#9486E7" transform="translate(216,142)"/>
<path d="M0 0 C1.93833996 0.08715017 3.8757429 0.19532964 5.8125 0.3125 C7.43091797 0.39951172 7.43091797 0.39951172 9.08203125 0.48828125 C12.17910163 1.03140872 13.21332071 1.4610347 15 4 C15 4.66 15 5.32 15 6 C10 4.33333333 5 2.66666667 0 1 C0 0.67 0 0.34 0 0 Z " fill="#9386D9" transform="translate(120,84)"/>
<path d="M0 0 C2.754893 0.3585544 3.79992099 0.77321255 5.66796875 2.890625 C6.16941406 3.66921875 6.67085937 4.4478125 7.1875 5.25 C7.95126953 6.40242188 7.95126953 6.40242188 8.73046875 7.578125 C10.04280589 10.08166046 10.59035531 12.2163903 11 15 C8.49739008 13.74869504 8.31277706 12.82641684 7.1875 10.3125 C5.2705667 6.29779063 2.96953749 3.29948609 0 0 Z " fill="#9689DD" transform="translate(145,48)"/>
<path d="M0 0 C0.66 0 1.32 0 2 0 C1.01 3.3 0.02 6.6 -1 10 C-1.66 10 -2.32 10 -3 10 C-3 8.68 -3 7.36 -3 6 C-3.99 5.67 -4.98 5.34 -6 5 C-5.38125 4.731875 -4.7625 4.46375 -4.125 4.1875 C-1.7004767 3.04443152 -1.7004767 3.04443152 0 0 Z " fill="#8E81E0" transform="translate(48,80)"/>
<path d="M0 0 C-1.27721526 4.99275057 -3.17330957 7.57611908 -7 11 C-6.67 10.2575 -6.34 9.515 -6 8.75 C-4.77217129 5.86116688 -4.77217129 5.86116688 -5 2 C-2 0 -2 0 0 0 Z " fill="#9386DE" transform="translate(211,160)"/>
<path d="M0 0 C1.08667969 0.01804687 2.17335938 0.03609375 3.29296875 0.0546875 C4.54013672 0.08949219 4.54013672 0.08949219 5.8125 0.125 C5.8125 0.455 5.8125 0.785 5.8125 1.125 C2.1825 1.125 -1.4475 1.125 -5.1875 1.125 C-5.1875 1.785 -5.1875 2.445 -5.1875 3.125 C-6.81376404 4.50732443 -8.4800002 5.84437515 -10.1875 7.125 C-9.875 4.75 -9.875 4.75 -9.1875 2.125 C-5.66070901 -0.22619399 -4.15870515 -0.08943452 0 0 Z " fill="#F4F4F4" transform="translate(576.1875,83.875)"/>
<path d="M0 0 C0 3.80345877 -1.13786331 4.77701015 -3.5 7.6875 C-4.47453125 8.89986328 -4.47453125 8.89986328 -5.46875 10.13671875 C-5.9740625 10.75160156 -6.479375 11.36648437 -7 12 C-7.33 11.34 -7.66 10.68 -8 10 C-5.36 6.7 -2.72 3.4 0 0 Z " fill="#9D92E3" transform="translate(202,173)"/>
<path d="M0 0 C0.33 0 0.66 0 1 0 C1.33 4.29 1.66 8.58 2 13 C1.01 13.495 1.01 13.495 0 14 C-1.13350534 16.01669827 -1.13350534 16.01669827 -2 18 C-2.04254356 16.00045254 -2.04080783 13.99958364 -2 12 C-1.67 11.67 -1.34 11.34 -1 11 C-0.76636119 9.15108054 -0.58696365 7.29511969 -0.4375 5.4375 C-0.35371094 4.42558594 -0.26992187 3.41367188 -0.18359375 2.37109375 C-0.12300781 1.58863281 -0.06242188 0.80617187 0 0 Z " fill="#8F82D9" transform="translate(187,128)"/>
<path d="M0 0 C0.66 0.33 1.32 0.66 2 1 C1.05065487 2.67180274 0.09026687 4.33733936 -0.875 6 C-1.40867187 6.928125 -1.94234375 7.85625 -2.4921875 8.8125 C-2.98976563 9.534375 -3.48734375 10.25625 -4 11 C-4.66 11 -5.32 11 -6 11 C-5.39305845 7.84669446 -4.3583335 5.81111133 -2.4375 3.25 C-1.98246094 2.63640625 -1.52742188 2.0228125 -1.05859375 1.390625 C-0.70925781 0.93171875 -0.35992187 0.4728125 0 0 Z " fill="#9589DA" transform="translate(83,50)"/>
<path d="M0 0 C0.66 0 1.32 0 2 0 C3.32 2.64 4.64 5.28 6 8 C5.01 9.485 5.01 9.485 4 11 C3.32880451 9.5437455 2.66318193 8.08492133 2 6.625 C1.62875 5.81289062 1.2575 5.00078125 0.875 4.1640625 C0 2 0 2 0 0 Z " fill="#A093E1" transform="translate(135,61)"/>
<path d="M0 0 C0.33 0.66 0.66 1.32 1 2 C1.66 2 2.32 2 3 2 C2.67 3.65 2.34 5.3 2 7 C1.34 7 0.68 7 0 7 C-0.66 5.68 -1.32 4.36 -2 3 C-1.34 2.01 -0.68 1.02 0 0 Z " fill="#8B7CE1" transform="translate(75,59)"/>
<path d="M0 0 C0.33 0.66 0.66 1.32 1 2 C2.32 2.33 3.64 2.66 5 3 C2.03 3.66 -0.94 4.32 -4 5 C-4 4.34 -4 3.68 -4 3 C-2.68 2.67 -1.36 2.34 0 2 C0 1.34 0 0.68 0 0 Z " fill="#9283DC" transform="translate(149,210)"/>
<path d="M0 0 C1.32 0.66 2.64 1.32 4 2 C2.515 4.475 2.515 4.475 1 7 C-0.0625 5.1875 -0.0625 5.1875 -1 3 C-0.67 2.01 -0.34 1.02 0 0 Z " fill="#8C7CDB" transform="translate(50,73)"/>
</svg>
